<svg xmlns="http://www.w3.org/2000/svg" xmlns:xlink="http://www.w3.org/1999/xlink" width="500" zoomAndPan="magnify" viewBox="0 0 375 374.999991" height="500" preserveAspectRatio="xMidYMid meet" version="1.0"><defs><g/><clipPath id="bd561ca2f3"><path d="M 268 137 L 343 137 L 343 217.304688 L 268 217.304688 Z M 268 137 " clip-rule="nonzero"/></clipPath><clipPath id="c06d6b60ff"><path d="M 264.71875 140 L 320 140 L 320 215 L 264.71875 215 Z M 264.71875 140 " clip-rule="nonzero"/></clipPath><clipPath id="d835b74ad2"><path d="M 25.910156 168.359375 L 354.609375 168.359375 L 354.609375 193.976562 L 25.910156 193.976562 Z M 25.910156 168.359375 " clip-rule="nonzero"/></clipPath></defs><g clip-path="url(#bd561ca2f3)"><path fill="#5eb23f" d="M 306.078125 217.304688 C 338.347656 203.300781 314.730469 182.019531 332.339844 156.144531 C 333.898438 168.546875 337.027344 182.003906 330.101562 195.125 C 337.183594 184.03125 340.613281 160.722656 330.570312 150.4375 C 327.953125 147.757812 324.902344 145.390625 321.472656 143.453125 C 303.117188 133.132812 280.0625 138.617188 268.320312 155.558594 C 279.8125 137.761719 303.457031 131.804688 322.207031 142.363281 C 326.027344 144.507812 329.355469 147.1875 332.15625 150.242188 C 333.035156 151.191406 333.859375 152.179688 334.617188 153.207031 C 344.019531 165.582031 345.695312 182.796875 337.511719 197.140625 C 330.730469 209.007812 318.789062 216.132812 306.078125 217.304688 " fill-opacity="1" fill-rule="evenodd"/></g><g clip-path="url(#c06d6b60ff)"><path fill="#000000" d="M 284.460938 145.960938 C 284.34375 146.535156 284.527344 147.105469 284.789062 147.457031 C 285.023438 147.378906 285.339844 147.132812 285.523438 146.964844 C 285.507812 146.585938 285.351562 146.558594 285.195312 146.261719 C 284.972656 145.859375 284.945312 145.9375 284.460938 145.960938 Z M 283.007812 147.144531 C 283.320312 147.300781 283.636719 147.300781 283.808594 146.964844 C 284.054688 146.105469 283.113281 145.859375 282.707031 146.429688 C 282.472656 146.78125 282.707031 146.988281 283.007812 147.144531 Z M 282.65625 152.253906 C 282.734375 151.941406 282.824219 152.191406 282.757812 151.476562 C 282.3125 151.332031 281.972656 151.398438 281.660156 151.734375 C 281.175781 152.253906 281.566406 152.347656 281.410156 152.789062 C 281.019531 152.839844 281.070312 152.695312 280.636719 152.839844 C 280.335938 153.632812 281.019531 153.570312 281.359375 153.855469 C 281.488281 153.957031 281.542969 154.0625 281.660156 154.152344 C 283.085938 153.945312 282.574219 152.566406 282.65625 152.253906 Z M 285.246094 150.941406 C 284.839844 150.824219 284.382812 150.550781 283.636719 150.96875 C 283.296875 151.136719 283.257812 152.046875 283.257812 152.425781 L 283.28125 152.851562 L 283.964844 152.894531 C 284.210938 151.878906 284.109375 152.464844 284.734375 151.996094 C 284.957031 151.8125 284.933594 151.667969 285.0625 151.476562 C 285.273438 151.164062 285.261719 151.359375 285.246094 150.941406 Z M 284.957031 148.863281 C 284.957031 149.5625 284.933594 149.667969 285.234375 150.148438 L 288.546875 149.71875 C 288.964844 149.679688 289.882812 150.019531 289.882812 148.640625 C 289.882812 148.265625 289.515625 148.054688 289.054688 148.054688 C 288.285156 148.054688 287.40625 149.03125 286.570312 148.757812 C 286.125 148.613281 286.582031 148.679688 285.925781 148.601562 L 285.875 148.589844 L 285.785156 148.5625 C 285.964844 148.160156 286.125 148.691406 286.125 148.109375 C 286.125 147.730469 285.679688 147.71875 285.324219 147.703125 C 284.933594 147.691406 284.59375 147.640625 284.265625 147.679688 C 283.859375 147.742188 283.964844 148.160156 284.210938 148.378906 C 284.433594 148.574219 284.800781 148.574219 284.957031 148.863281 Z M 281.199219 148.980469 C 281.070312 149.523438 281.160156 149.773438 281.867188 150.253906 C 282.027344 150.371094 282.300781 150.410156 282.550781 150.34375 C 283.113281 150.199219 283.058594 149.902344 283.074219 149.796875 L 283.792969 150.316406 C 284.488281 150.125 284.773438 149.875 284.410156 149.238281 L 283.78125 149.1875 C 283.542969 148.757812 283.480469 148.121094 282.757812 148.574219 C 282.25 148.902344 281.972656 148.980469 281.199219 148.980469 Z M 276.160156 151.28125 C 276.355469 152.035156 277.746094 152.359375 278.492188 151.996094 C 279.042969 151.734375 278.910156 151.410156 279.433594 151.253906 C 279.867188 151.136719 279.65625 151.175781 279.957031 150.957031 C 280.128906 150.824219 280.414062 150.761719 280.558594 150.644531 C 280.546875 150.085938 280.46875 150.136719 280.101562 149.929688 C 280.179688 149.71875 280.167969 149.796875 280.113281 149.421875 C 279.160156 149.382812 279.617188 149.886719 279.25 150.550781 L 278.386719 150.070312 C 278.019531 149.785156 277.941406 149.679688 277.484375 150.019531 C 277.0625 150.332031 276.332031 150.835938 276.160156 151.28125 Z M 293.390625 191.429688 C 292.839844 191.117188 291.230469 190.882812 291.007812 192.289062 C 291.386719 192.351562 291.375 192.234375 291.742188 192.390625 C 292.40625 192.652344 293.3125 192.378906 293.703125 192.09375 C 293.703125 191.832031 293.664062 191.585938 293.390625 191.429688 Z M 290.875 190.871094 C 290.574219 190.765625 290.390625 190.582031 290.066406 190.414062 C 289.777344 190.273438 289.4375 190.140625 289.175781 190.011719 C 286.804688 188.894531 286.976562 189.503906 286.125 189.519531 L 286.125 190.21875 C 287.339844 190.128906 287.5625 190.089844 288.914062 190.804688 C 289.683594 191.222656 289.371094 191.3125 289.855469 191.351562 L 290.027344 191.363281 C 290.117188 191.390625 290.8125 192.054688 290.875 190.871094 Z M 314.941406 159.574219 C 315.28125 159.496094 315.359375 159.394531 315.632812 159.769531 C 315.582031 159.992188 315.726562 159.875 315.347656 159.964844 C 315.582031 161.214844 315.648438 160.25 315.699219 161.019531 C 316.144531 161.109375 316.011719 161.003906 316.144531 161.472656 C 317.246094 161.628906 316.773438 161.851562 317.335938 161.851562 C 317.703125 161.851562 318.355469 161.550781 318.59375 161.394531 C 318.921875 161.1875 319.285156 160.730469 319.5625 160.628906 C 319.5625 159.964844 319.445312 159.625 319.078125 159.25 C 318.121094 158.273438 318.332031 159.003906 317.871094 159.003906 L 316.195312 159.003906 C 315.804688 159.003906 316.261719 158.71875 315.410156 158.613281 C 315.136719 158.976562 315.019531 158.949219 314.941406 159.574219 Z M 300.394531 150.929688 C 300.539062 151.773438 299.753906 151.851562 300.34375 152.566406 C 300.90625 152.527344 300.683594 152.253906 301.335938 152.191406 C 301.414062 152.320312 301.441406 152.320312 301.507812 152.464844 C 301.597656 152.683594 301.496094 152.632812 301.652344 152.789062 C 301.875 153.023438 302.242188 152.761719 302.042969 153.414062 C 301.535156 153.359375 301.742188 153.0625 301.257812 153.0625 C 300.054688 153.0625 300.5 154.984375 301.101562 154.984375 C 301.507812 154.984375 301.703125 154.84375 302.019531 154.714844 C 302.019531 154.386719 301.992188 154.386719 301.859375 154.167969 L 302.253906 154.167969 C 302.699219 155.53125 301.453125 155.234375 301.21875 155.882812 C 301.167969 156.039062 301.023438 156.15625 301.023438 156.363281 C 301.050781 159.691406 301.152344 157.703125 301.453125 158.976562 C 301.519531 159.261719 301.585938 159.757812 301.613281 160.109375 C 302.03125 160.082031 302.148438 159.914062 302.503906 160.03125 C 302.488281 160.25 302.253906 160.328125 302.253906 160.746094 C 302.253906 161.628906 302.34375 161.785156 302.910156 162.433594 C 303.078125 162.628906 303.261719 162.722656 303.339844 162.917969 C 303.535156 163.476562 303.195312 163.460938 303.980469 163.644531 C 305.355469 163.96875 305.328125 165.101562 306.417969 164.28125 C 306.429688 163.488281 306.691406 163.269531 306.71875 162.644531 C 306.742188 161.875 306.875 161.601562 307.359375 161.292969 C 307.359375 160.796875 307.320312 160.367188 307.449219 159.9375 C 307.648438 159.339844 307.75 159.707031 307.921875 158.976562 C 308.734375 158.820312 309.246094 158.847656 309.859375 158.390625 C 310.621094 157.820312 310.933594 157.054688 311.207031 156.84375 C 311.222656 156.832031 311.367188 156.742188 311.390625 156.726562 C 311.785156 156.492188 312.320312 156.453125 312.84375 156.335938 C 314.863281 155.933594 313.683594 155.503906 314.902344 155.503906 C 315.03125 155.257812 315.1875 155.117188 315.320312 154.882812 C 315.476562 154.59375 315.4375 154.375 315.6875 154.191406 L 315.449219 153.476562 C 315.359375 152.957031 315.304688 153.320312 315.097656 152.945312 C 315.019531 152.644531 315.214844 151.996094 315.1875 151.824219 C 315.125 151.460938 314.980469 151.863281 314.980469 151.4375 C 314.980469 151.125 315.085938 151.203125 315.136719 151.148438 C 315.253906 151.019531 315.292969 151.007812 315.28125 151.019531 C 315.347656 150.941406 315.265625 151.03125 315.347656 150.902344 C 315.449219 150.734375 315.386719 150.785156 315.527344 150.617188 C 316.289062 149.628906 315.570312 149.796875 315.449219 149.171875 C 315.816406 149.210938 315.738281 149.460938 316.132812 149.601562 C 316.394531 149.34375 316.472656 149.277344 316.433594 148.785156 C 315.304688 148.523438 315.933594 148.613281 315.265625 148.042969 C 315.226562 148.015625 313.90625 147.121094 314.742188 147.121094 C 315.085938 147.121094 315.203125 147.339844 315.515625 147.121094 C 315.816406 146.742188 315.019531 146.367188 314.875 146.246094 C 314.585938 146.039062 314.167969 145.820312 314.167969 145.378906 C 314.167969 144.140625 315.203125 143.789062 315.214844 142.84375 C 311.507812 141.683594 312.820312 142.632812 312.125 142.6875 L 312.152344 141.96875 C 311.078125 141.605469 311.640625 141.816406 310.800781 142.164062 C 310.621094 141.933594 310.777344 142.011719 310.632812 141.738281 C 310.527344 141.527344 310.515625 141.605469 310.410156 141.4375 C 310.316406 141.308594 310.292969 141.164062 310.226562 141.085938 C 310.109375 140.929688 310.015625 140.957031 309.9375 140.828125 L 315.503906 142.492188 C 312.570312 141.359375 309.480469 140.578125 306.261719 140.203125 C 306.273438 140.214844 306.285156 140.214844 306.285156 140.214844 C 305.945312 140.929688 305.238281 140.359375 304.910156 140.359375 C 304.308594 140.359375 304.765625 140.527344 304.085938 140.605469 C 302.855469 140.761719 301.636719 140.734375 300.421875 140.65625 C 299.765625 140.617188 299.375 140.917969 298.691406 140.8125 C 298.222656 140.734375 297.839844 140.539062 297.304688 140.605469 C 295.863281 140.800781 294.632812 141.101562 293.21875 141.332031 C 291.832031 141.566406 290.902344 142.28125 289.421875 142.28125 C 289.148438 142.582031 289.359375 142.648438 288.820312 142.6875 C 288.441406 142.726562 288.246094 142.789062 288.128906 143.101562 C 288.308594 143.480469 288.441406 143.246094 288.585938 143.621094 C 287.90625 143.636719 288.246094 143.453125 287.839844 143.453125 L 287.222656 143.453125 C 287.054688 143.558594 286.046875 144.507812 285.886719 144.664062 C 285.601562 144.972656 285.71875 145.15625 285.902344 145.558594 C 286.347656 146.507812 286.570312 146.246094 287.105469 146.027344 C 287.378906 146.339844 287.316406 146.222656 287.300781 146.910156 C 287.066406 147.078125 286.753906 147.261719 286.542969 147.496094 C 286.554688 147.507812 286.621094 147.601562 286.648438 147.625 C 287.132812 148.160156 288.9375 147.679688 289.277344 147.367188 C 289.671875 147.546875 289.632812 147.652344 290.167969 147.472656 C 291.425781 147.015625 290.71875 146.832031 291.191406 145.976562 C 291.480469 145.46875 291.519531 145.570312 291.949219 145.480469 C 292.433594 145.363281 292.683594 143.972656 293.808594 143.425781 C 294.503906 143.101562 294.738281 142.882812 295.339844 142.386719 C 295.800781 142.023438 295.746094 142.203125 295.761719 141.503906 C 296.140625 141.476562 296.46875 141.527344 296.9375 141.386719 C 297.238281 141.292969 297.699219 141.125 298.050781 141.292969 C 298.039062 141.605469 298.078125 141.476562 297.578125 141.644531 C 296.992188 141.839844 296.558594 142.152344 295.980469 142.320312 L 295.996094 142.867188 C 296.285156 142.882812 296.453125 142.90625 296.597656 143.101562 C 296.453125 143.414062 296.402344 143.113281 296.152344 143.621094 C 295.054688 143.621094 294.949219 144.078125 294.097656 144.324219 C 293.757812 144.425781 293.519531 144.285156 293.519531 144.621094 C 293.519531 146.039062 294.871094 145.089844 295.980469 145.441406 C 295.679688 146.234375 294.632812 145.636719 294.175781 145.753906 C 293.992188 145.804688 293.886719 145.921875 293.757812 146.015625 C 293.796875 146.753906 293.980469 146.417969 294.332031 146.585938 C 294.542969 146.675781 294.609375 147.066406 294.726562 147.277344 C 295.707031 147.144531 296.675781 147.003906 297.671875 147.003906 C 298.3125 147.003906 299.28125 148.066406 299.503906 148.550781 C 299.636719 148.835938 299.554688 148.667969 299.714844 148.875 C 299.882812 149.121094 300.355469 150.722656 300.394531 150.929688 Z M 289.828125 154.476562 C 290.207031 154.765625 290.40625 155.324219 290.40625 155.910156 C 290.785156 155.910156 291.386719 155.949219 291.386719 156.3125 C 291.125 156.546875 290.535156 156.335938 290.128906 156.492188 C 289.828125 156.6875 289.699219 157.703125 290.5625 157.636719 C 291.347656 157.574219 291.386719 156.882812 291.921875 156.921875 C 292.003906 158.289062 291.582031 157.636719 291.214844 158.742188 C 291.152344 158.949219 291.191406 159.082031 291.152344 159.339844 C 289.90625 159.40625 289.421875 159.457031 289.421875 160.511719 C 290.5625 160.875 290.195312 160.613281 291.269531 160.34375 C 292.605469 161.371094 291.542969 161.511719 293.769531 162.5 C 294.265625 162.722656 294.449219 162.902344 294.910156 162.628906 C 294.777344 161.695312 293.875 161.707031 293.820312 161.238281 C 294.503906 161.292969 294.949219 161.757812 295.628906 161.914062 C 296.101562 160.574219 295.722656 160.550781 295.273438 160.03125 C 294.582031 159.222656 294.425781 159.316406 294.464844 158.222656 C 295.433594 158.378906 295.105469 159.613281 296.152344 159.585938 C 296.910156 159.574219 297.238281 157.804688 297.214844 157.753906 C 297.015625 157.300781 296.820312 157.558594 296.492188 157.300781 L 295.851562 156.726562 C 294.632812 155.714844 294.699219 156.453125 294.6875 155.503906 C 294.894531 155.492188 294.933594 155.480469 295.039062 155.414062 C 295.039062 155.363281 294.832031 153.90625 294.726562 154.074219 C 294.710938 154.101562 294.660156 154.050781 294.621094 154.023438 C 294.214844 153.800781 294.410156 153.894531 294.148438 153.644531 C 293.796875 153.335938 293.796875 153.621094 293.441406 153.296875 C 292.800781 152.695312 293.140625 152.4375 292.09375 152.644531 C 291.976562 152.476562 291.859375 152.386719 291.703125 152.214844 C 291.492188 151.96875 291.257812 151.449219 291.097656 151.136719 C 290.902344 150.746094 290.96875 151.097656 290.980469 150.578125 C 289.867188 150.304688 290.863281 150.382812 289.054688 150.382812 C 288.730469 150.382812 288.953125 150.527344 288.363281 150.550781 C 288.207031 150.566406 288.179688 150.539062 288.035156 150.589844 C 287.839844 150.65625 288.085938 150.628906 287.734375 150.773438 C 287 149.847656 285.691406 151.488281 285.351562 152.230469 C 285.246094 152.425781 285.0625 153.0625 284.972656 153.21875 C 285.417969 153.570312 285.46875 153.320312 285.835938 153.839844 C 285.5625 154.296875 285.574219 154.011719 285.378906 154.726562 C 286.398438 154.960938 287.878906 154.972656 288.976562 154.84375 C 289.644531 154.75 289.4375 154.632812 289.828125 154.476562 Z M 283.503906 167.699219 C 284.25 167.960938 284.917969 168.335938 285.574219 168.753906 C 286.1875 169.144531 286.699219 168.792969 287.105469 169.261719 C 287.328125 169.769531 286.738281 171.171875 287.5625 171.613281 L 288.21875 171.992188 C 289.148438 171.535156 288.363281 170.847656 288.363281 170.132812 L 288.480469 169.417969 C 288.613281 169 288.429688 169.234375 288.835938 169.078125 C 289.332031 168.910156 289.175781 168.84375 289.410156 168.378906 C 289.660156 167.898438 289.605469 167.988281 289.488281 167.375 C 289.292969 166.285156 288.613281 166.050781 288.976562 165.59375 C 289.332031 165.152344 289.304688 165.398438 289.292969 164.605469 C 289.292969 164.175781 289.304688 163.75 289.292969 163.320312 C 289.292969 162.265625 288.925781 162.476562 291.648438 162.5 C 291.832031 162.773438 292.34375 163.320312 292.566406 163.476562 C 292.878906 163.671875 292.972656 163.539062 293.128906 163.90625 C 293.585938 164.945312 292.984375 165.503906 292.945312 165.894531 C 293.21875 165.894531 293.429688 165.804688 293.601562 165.855469 C 294.082031 165.984375 294.058594 166.441406 294.710938 165.75 C 295.289062 165.152344 294.871094 164.933594 295.210938 164.515625 C 295.667969 163.957031 296.0625 164.90625 296.203125 165.230469 C 296.425781 165.683594 296.6875 166.0625 296.871094 166.542969 C 296.898438 166.609375 296.925781 166.671875 296.953125 166.765625 C 297.015625 166.921875 297.054688 166.933594 297.082031 167.023438 C 297.226562 167.519531 296.53125 167.519531 297.410156 168.195312 C 297.683594 168.402344 297.828125 168.648438 298.050781 168.910156 L 299.007812 168.960938 L 299.332031 169.691406 C 299.359375 169.769531 299.398438 169.898438 299.453125 169.964844 C 299.714844 170.300781 299.425781 169.976562 299.660156 170.121094 C 299.832031 170.222656 299.765625 170.144531 299.871094 170.289062 C 300.261719 170.78125 300.09375 171.628906 300.09375 172.328125 C 300.09375 172.773438 299.804688 172.550781 299.871094 173.253906 C 300.300781 173.410156 300.261719 173.382812 300.8125 173.394531 C 300.96875 173.773438 300.957031 173.527344 301.035156 174.070312 C 301.089844 174.449219 301.179688 174.460938 301.390625 174.707031 C 301.730469 175.113281 301.675781 175.75 301.023438 175.605469 C 300 175.386719 300.238281 174.839844 298.039062 174.839844 C 298.140625 174.460938 298.351562 174.253906 298.496094 173.902344 C 298.679688 173.460938 299.113281 172.707031 299.070312 172.304688 C 298.339844 172.148438 298.300781 172.511719 298.234375 172.8125 C 298.023438 172.835938 296.648438 173.007812 296.53125 173.082031 C 296.625 173.199219 296.742188 173.214844 296.925781 173.214844 L 296.910156 173.914062 C 295.824219 173.914062 296.140625 173.902344 295.667969 173.332031 C 295.339844 172.925781 294.699219 173.164062 294.265625 173.34375 C 293.574219 173.617188 293.558594 173.589844 293.21875 174.203125 C 292.933594 174.707031 292.449219 174.761719 292.40625 175.320312 C 293.0625 175.253906 292.972656 174.632812 293.757812 174.125 C 294.070312 173.914062 294.832031 173.433594 295.25 173.589844 C 296.074219 173.890625 294.894531 174.449219 295.734375 175.164062 C 295.917969 175.308594 296.164062 175.347656 296.363281 175.449219 C 296.953125 175.710938 297.304688 175.617188 297.921875 175.488281 C 297.921875 176.242188 297.945312 176.113281 297.539062 176.515625 C 297.226562 176.800781 297.082031 176.867188 296.597656 176.945312 C 296.164062 177.011719 296.101562 177.242188 295.761719 177.476562 C 295.339844 177.765625 295.339844 177.75 294.726562 177.75 C 294.59375 177.023438 294.972656 177.386719 294.972656 176.839844 C 294.1875 176.789062 294.609375 177.035156 293.964844 177.207031 C 293.613281 177.296875 293.441406 177.324219 293.179688 177.554688 L 292.589844 178.101562 C 292.449219 178.335938 292.578125 178.753906 292.578125 179.089844 C 292.144531 179.234375 291.742188 179.375 291.386719 179.648438 C 290.875 180.027344 290.953125 180.15625 290.679688 180.769531 C 290.496094 181.183594 290.3125 181.535156 290.15625 182.066406 C 289.738281 183.484375 289.867188 183.015625 289.121094 183.757812 C 288.703125 184.175781 287.945312 184.511719 287.640625 185.019531 C 287.027344 186.085938 288.257812 186.5 288.246094 188.230469 L 288.230469 188.53125 C 288.007812 188.53125 287.773438 188.53125 287.601562 188.464844 C 287.300781 188.347656 286.976562 187.503906 286.855469 187.164062 C 286.386719 185.902344 286.386719 185.628906 283.910156 185.929688 L 283.808594 186.371094 C 282.917969 186.5 282.902344 186.019531 282.117188 186.019531 C 281.6875 186.019531 280.730469 186.800781 280.730469 187.179688 C 280.730469 189.738281 280.507812 189.050781 281.253906 190.453125 C 281.449219 190.816406 281.605469 191.234375 282.039062 191.339844 C 282.996094 191.558594 283.703125 190.988281 283.847656 190.039062 C 284.710938 190.039062 284.554688 189.945312 285.140625 190.296875 C 285.101562 191.027344 284.894531 191.128906 284.894531 192.507812 C 285.363281 192.792969 286.136719 192.847656 286.6875 193.082031 C 287.339844 193.367188 287.132812 194.261719 287.132812 195.121094 C 287.238281 195.304688 287.484375 195.523438 287.628906 195.628906 C 287.957031 195.902344 287.984375 195.8125 288.390625 195.773438 C 289.660156 195.628906 289.121094 195.953125 289.972656 196.160156 C 290.3125 195.953125 290.445312 195.550781 290.941406 195.328125 C 291.152344 195.25 291.414062 195.1875 291.636719 195.109375 C 292.421875 194.824219 291.296875 194.132812 293.640625 195.265625 L 294.28125 195.601562 C 295.011719 195.941406 296.324219 195.484375 296.792969 195.773438 C 297.09375 195.953125 296.886719 196.003906 297.121094 196.199219 C 297.304688 196.332031 297.75 196.394531 298.15625 196.695312 C 298.457031 196.914062 299.28125 197.65625 299.503906 197.710938 C 300.589844 197.96875 301.769531 197.527344 302.582031 199.179688 C 303.195312 200.464844 302.332031 200.089844 303.824219 200.375 C 304.140625 200.425781 304.324219 200.503906 304.648438 200.609375 C 305.894531 200.984375 305.683594 201.230469 306.585938 201.101562 C 307.292969 201 309.046875 201.933594 309.703125 202.167969 C 309.703125 203.691406 309.546875 203.457031 308.65625 204.289062 C 308.328125 204.585938 307.960938 204.753906 307.816406 205.054688 C 307.726562 205.199219 307.59375 206.015625 307.492188 206.316406 C 307.253906 206.980469 306.757812 207.796875 306.167969 208.175781 C 305.855469 208.382812 305.03125 208.109375 303.695312 208.980469 C 303.328125 209.226562 303.300781 209.863281 302.242188 210.710938 C 302.042969 210.867188 301.9375 210.878906 301.796875 211.035156 C 301.507812 211.347656 301.78125 211.28125 301.296875 211.386719 C 299.738281 211.683594 300.355469 212.21875 299.125 212.375 C 298.746094 212.425781 298.128906 212.570312 297.867188 212.726562 C 297.214844 213.128906 296.898438 213.699219 296.335938 214.011719 C 296.191406 214.089844 296.324219 214.011719 296.191406 214.105469 C 296.101562 214.167969 295.839844 214.378906 295.261719 214.089844 C 294.894531 213.921875 294.464844 214.050781 294.042969 213.949219 C 294.003906 213.308594 293.742188 213.910156 294.003906 213.296875 C 294.148438 212.945312 294.148438 212.789062 293.925781 212.558594 C 293.335938 211.945312 293.351562 211.945312 293.691406 211.152344 C 294.082031 210.214844 293.535156 210.230469 293.769531 209.578125 C 293.847656 209.398438 293.847656 209.554688 293.875 209.214844 L 293.914062 207.019531 C 293.863281 206.746094 293.925781 206.992188 293.78125 206.796875 C 293.480469 206.40625 293.613281 206.394531 293.089844 206.1875 C 291.441406 205.507812 291.320312 205.183594 290.328125 203.859375 C 290.183594 203.664062 290.117188 203.519531 289.984375 203.363281 C 287.929688 200.789062 288.925781 202.101562 288.730469 200.53125 C 288.703125 200.246094 288.703125 199.957031 288.714844 199.660156 C 289.042969 199.375 289.882812 198.554688 289.882812 198.074219 C 289.882812 197.605469 289.460938 196.628906 288.976562 196.628906 C 287.523438 196.628906 288.335938 197.007812 286.921875 196.1875 C 286.097656 195.691406 285.703125 194.40625 284.828125 194.09375 C 284.515625 193.992188 284.515625 193.992188 284.238281 193.847656 C 283.925781 193.679688 283.832031 193.769531 283.597656 193.664062 C 283.375 193.5625 283.441406 193.445312 283.140625 193.289062 C 282.796875 193.09375 282.902344 193.195312 282.640625 192.9375 C 282.300781 192.585938 281.804688 192.691406 281.34375 192.652344 C 280.925781 192.613281 280.652344 192.3125 280.246094 192.144531 C 279.082031 191.648438 277.96875 191 277.613281 189.75 C 277.378906 188.90625 276.761719 188.414062 276.292969 187.738281 L 274.523438 184.941406 C 274.328125 184.679688 274.5 184.824219 274.261719 184.757812 C 274.171875 185.03125 274.195312 185.070312 274.355469 185.265625 C 274.746094 185.773438 274.40625 185.773438 274.734375 186.035156 L 275.085938 186.578125 C 275.207031 186.851562 275.335938 187.058594 275.519531 187.359375 C 275.792969 187.800781 276.710938 188.296875 276.015625 188.84375 C 275.324219 188.75 274.785156 187.292969 274.417969 186.789062 C 274.144531 186.421875 273.972656 186.007812 273.777344 185.617188 C 273.410156 184.902344 273.242188 183.578125 272.585938 183.082031 C 271.878906 182.574219 270.703125 180.078125 270.703125 179.453125 C 270.703125 178.503906 270.582031 177.554688 270.792969 176.59375 C 270.859375 176.253906 271.003906 176.308594 270.820312 175.917969 C 270.503906 175.265625 270.949219 175.191406 270.359375 174.476562 C 269.535156 173.472656 270.257812 173.148438 269.785156 172.25 C 269.667969 172.03125 269.613281 171.914062 269.40625 171.757812 C 269.039062 171.484375 269.953125 170.46875 268.59375 170.46875 C 268.59375 169.949219 268.265625 169.378906 268.199219 168.832031 C 268.160156 168.535156 268.253906 168.636719 268.097656 168.402344 L 267.652344 167.765625 C 267.351562 167.492188 267.257812 167.636719 267.046875 167.804688 C 266.734375 168.066406 266.878906 167.882812 266.617188 168 C 266.355469 168.105469 266.261719 168.492188 266.171875 168.753906 C 265.898438 169.574219 266.300781 170.234375 265.425781 170.457031 C 265.164062 170.003906 265.464844 169.597656 265.203125 169.324219 C 265.046875 170.171875 264.875 169.714844 264.746094 170.300781 C 265.464844 166.570312 266.746094 163.03125 268.5 159.769531 C 268.449219 159.898438 268.4375 160.003906 268.449219 160.070312 C 268.722656 160.238281 269.039062 159.914062 269.367188 159.808594 C 269.796875 159.679688 270.085938 159.71875 270.609375 159.691406 C 270.726562 159.496094 270.742188 159.378906 270.859375 159.183594 C 270.976562 158.988281 271.121094 158.871094 271.238281 158.730469 C 271.773438 158.132812 271.878906 158.300781 272.585938 158.300781 C 273.003906 158.300781 273.648438 157.820312 274.039062 157.804688 C 274.339844 157.804688 274.941406 157.960938 275.257812 158.105469 C 275.492188 158.195312 275.453125 158.171875 275.597656 158.300781 L 275.53125 158.910156 C 275.6875 158.988281 276.277344 158.71875 276.933594 158.71875 C 277.246094 158.71875 277.183594 158.976562 277.417969 159.132812 C 277.523438 159.210938 277.535156 159.199219 277.679688 159.222656 C 277.691406 158.640625 277.808594 158.703125 277.46875 158.328125 C 277.167969 157.988281 277.339844 158.066406 276.855469 158.066406 C 276.539062 158.066406 276.644531 158.496094 276.121094 157.921875 C 275.6875 157.441406 275.753906 157.753906 275.269531 157.507812 C 275.179688 157.027344 275.441406 156.859375 275.820312 156.753906 C 276.382812 156.609375 276.265625 156.664062 276.605469 156.285156 C 276.148438 156.066406 276.082031 156.453125 275.441406 156.324219 C 275.257812 156.078125 275.441406 156.3125 275.347656 156.117188 L 275.007812 155.542969 C 274.8125 155.832031 274.695312 155.792969 274.433594 156.066406 C 274.195312 156.324219 274.105469 156.375 273.648438 156.285156 C 273.609375 155.363281 274.417969 153.972656 275.0625 153.28125 C 275.308594 153.023438 275.992188 152.945312 276.394531 152.945312 C 276.777344 152.945312 277.367188 153.4375 277.5625 153.605469 C 277.769531 153.777344 277.875 153.894531 278.058594 154.035156 L 278.308594 154.246094 C 278.503906 154.453125 278.242188 154.386719 278.609375 154.453125 C 278.621094 154.4375 278.636719 154.402344 278.636719 154.414062 C 278.675781 154.558594 278.675781 154.320312 278.675781 154.296875 C 278.84375 153.789062 278.882812 153.269531 279.121094 152.773438 C 279.316406 152.398438 280.273438 151.605469 280.273438 152.5 C 280.273438 152.839844 280.035156 153.074219 279.734375 153.152344 C 279.734375 153.621094 279.707031 154.167969 279.734375 154.621094 C 279.773438 155.582031 280.796875 154.933594 280.507812 155.933594 C 280.441406 156.183594 280.285156 156.234375 280.101562 156.363281 C 280.3125 157.429688 279.800781 157.144531 279.328125 157.300781 L 279.171875 157.363281 L 279.121094 157.390625 L 279.027344 157.441406 L 278.976562 157.46875 C 278.976562 157.46875 278.949219 157.480469 278.9375 157.496094 C 279.027344 157.691406 279.34375 157.847656 279.527344 158.027344 L 280.441406 158.015625 C 280.730469 157.714844 280.914062 157.585938 281.109375 157.105469 C 281.304688 156.625 281.28125 156.375 281.648438 155.984375 C 282.378906 155.984375 281.90625 156.183594 282.351562 156.324219 C 282.574219 156.324219 282.980469 156.351562 282.835938 156.027344 C 282.785156 155.894531 282.3125 155.777344 282.3125 155.453125 C 282.3125 154.074219 282.589844 154.402344 282.835938 153.972656 C 283.085938 153.542969 282.8125 153.644531 283.570312 153.644531 C 283.886719 153.644531 284.082031 154.609375 284.082031 154.921875 C 284.082031 155.503906 283.886719 155.195312 284.210938 155.714844 C 284.421875 156.050781 284.355469 156.285156 284.488281 156.597656 C 284.773438 156.507812 284.90625 156.105469 284.984375 155.804688 C 285.039062 155.855469 285.0625 155.871094 285.078125 155.871094 C 285.078125 155.882812 285.078125 155.910156 285.117188 155.972656 C 285.140625 156.039062 285.15625 156.128906 285.179688 156.195312 C 285.417969 156.167969 285.351562 156.117188 285.535156 156.207031 C 285.535156 156.625 285.261719 157.183594 285.441406 157.597656 C 285.691406 157.675781 285.746094 157.625 285.953125 157.519531 C 286.007812 157.246094 285.992188 156.988281 286.109375 156.753906 C 286.242188 156.46875 286.410156 156.429688 286.542969 156.207031 C 286.675781 155.675781 286.058594 154.660156 288.207031 155.53125 C 288.21875 155.894531 288.128906 156.273438 288.128906 156.585938 C 288.128906 157.535156 288.453125 157.574219 287.707031 158.273438 C 287.472656 158.484375 287.523438 158.613281 287.199219 158.9375 C 287.238281 159.222656 287.289062 159.144531 287.277344 159.367188 C 287.25 159.601562 287.171875 159.550781 287.132812 159.835938 C 287.511719 160.316406 288.296875 160.71875 288.191406 161.472656 C 287.722656 161.71875 287.628906 161.34375 286.988281 161.277344 C 286.855469 161.796875 286.910156 161.667969 286.308594 161.746094 C 285.925781 161.796875 285.5625 161.601562 285.507812 161.304688 C 285.417969 160.863281 285.835938 160.835938 285.835938 160.445312 C 285.835938 160.148438 285.796875 159.976562 285.625 159.847656 C 285.246094 160.210938 285.925781 160.445312 284.566406 161.355469 C 283.386719 162.148438 284.1875 162.449219 283.375 162.746094 C 282.445312 163.097656 282.996094 162.96875 282.273438 164.242188 C 281.90625 164.90625 281.59375 165.308594 282.039062 166.207031 C 282.484375 166.453125 282.40625 166.050781 282.5625 166.660156 C 282.71875 167.335938 282.851562 167.492188 283.503906 167.699219 " fill-opacity="1" fill-rule="evenodd"/></g><g fill="#000000" fill-opacity="1"><g transform="translate(30.611643, 212.731524)"><g><path d="M 52.09375 -61.953125 C 53.4375 -61.953125 54.363281 -62.351562 54.875 -63.15625 C 55.382812 -63.957031 55.640625 -64.929688 55.640625 -66.078125 L 57.171875 -66.078125 L 57.171875 -45.578125 L 55.640625 -45.578125 C 55.640625 -48.515625 55.0625 -51.289062 53.90625 -53.90625 C 52.757812 -56.53125 51.226562 -58.847656 49.3125 -60.859375 C 47.40625 -62.867188 45.171875 -64.460938 42.609375 -65.640625 C 40.054688 -66.828125 37.378906 -67.421875 34.578125 -67.421875 C 28.316406 -67.421875 23.523438 -64.59375 20.203125 -58.9375 C 16.890625 -53.289062 15.234375 -44.878906 15.234375 -33.703125 C 15.234375 -22.597656 16.875 -14.203125 20.15625 -8.515625 C 23.445312 -2.835938 28.253906 0 34.578125 0 C 37.378906 0 40.039062 -0.617188 42.5625 -1.859375 C 45.082031 -3.109375 47.300781 -4.800781 49.21875 -6.9375 C 51.132812 -9.082031 52.664062 -11.601562 53.8125 -14.5 C 54.96875 -17.40625 55.578125 -20.519531 55.640625 -23.84375 L 57.171875 -23.84375 L 57.171875 -1.15625 L 55.640625 -1.15625 C 55.640625 -2.175781 55.382812 -3.226562 54.875 -4.3125 C 54.363281 -5.394531 53.535156 -5.9375 52.390625 -5.9375 C 51.617188 -5.9375 50.738281 -5.550781 49.75 -4.78125 C 48.757812 -4.019531 47.546875 -3.160156 46.109375 -2.203125 C 44.671875 -1.242188 43.007812 -0.382812 41.125 0.375 C 39.25 1.144531 37.066406 1.53125 34.578125 1.53125 C 30.359375 1.53125 26.410156 0.585938 22.734375 -1.296875 C 19.066406 -3.179688 15.875 -5.734375 13.15625 -8.953125 C 10.445312 -12.179688 8.296875 -15.914062 6.703125 -20.15625 C 5.109375 -24.40625 4.3125 -28.921875 4.3125 -33.703125 C 4.3125 -38.492188 5.109375 -43.023438 6.703125 -47.296875 C 8.296875 -51.578125 10.460938 -55.3125 13.203125 -58.5 C 15.953125 -61.695312 19.160156 -64.238281 22.828125 -66.125 C 26.503906 -68.007812 30.421875 -68.953125 34.578125 -68.953125 C 37.066406 -68.953125 39.203125 -68.582031 40.984375 -67.84375 C 42.773438 -67.113281 44.335938 -66.316406 45.671875 -65.453125 C 47.015625 -64.585938 48.195312 -63.785156 49.21875 -63.046875 C 50.238281 -62.316406 51.195312 -61.953125 52.09375 -61.953125 Z M 52.09375 -61.953125 "/></g></g></g><g fill="#000000" fill-opacity="1"><g transform="translate(113.632733, 212.731524)"><g><path d="M 20.109375 -67.421875 L 40.21875 -16.46875 L 59.953125 -67.421875 L 78.140625 -67.421875 L 78.140625 -65.890625 L 69.71875 -65.890625 L 69.71875 -1.53125 L 78.140625 -1.53125 L 78.140625 0 L 50.953125 0 L 50.953125 -1.53125 L 59.953125 -1.53125 L 59.953125 -62.25 L 59.75 -62.25 L 36.390625 -1.53125 L 35.53125 -1.53125 L 11.78125 -61.09375 L 11.59375 -61.09375 L 11.59375 -9.09375 C 11.59375 -7.5 11.671875 -6.207031 11.828125 -5.21875 C 11.984375 -4.226562 12.300781 -3.460938 12.78125 -2.921875 C 13.257812 -2.378906 13.914062 -2.007812 14.75 -1.8125 C 15.582031 -1.625 16.664062 -1.53125 18 -1.53125 L 21.359375 -1.53125 L 21.359375 0 L 1.625 0 L 1.625 -1.53125 L 3.546875 -1.53125 C 4.816406 -1.53125 5.867188 -1.609375 6.703125 -1.765625 C 7.535156 -1.929688 8.207031 -2.269531 8.71875 -2.78125 C 9.226562 -3.289062 9.578125 -4.039062 9.765625 -5.03125 C 9.960938 -6.019531 10.0625 -7.34375 10.0625 -9 L 10.0625 -65.890625 L 1.625 -65.890625 L 1.625 -67.421875 Z M 20.109375 -67.421875 "/></g></g></g><g fill="#000000" fill-opacity="1"><g transform="translate(212.548978, 212.731524)"><g><path d="M 31.3125 -67.421875 L 31.3125 -65.890625 L 21.734375 -65.890625 L 21.734375 -1.53125 L 34.578125 -1.53125 C 37.515625 -1.53125 40.019531 -1.625 42.09375 -1.8125 C 44.164062 -2.007812 45.953125 -2.28125 47.453125 -2.625 C 48.953125 -2.976562 50.179688 -3.425781 51.140625 -3.96875 C 52.097656 -4.507812 52.925781 -5.132812 53.625 -5.84375 C 55.09375 -7.3125 56.160156 -9.289062 56.828125 -11.78125 C 57.503906 -14.269531 57.84375 -17.6875 57.84375 -22.03125 L 59.375 -22.03125 L 59.375 0 L 2.390625 0 L 2.390625 -1.53125 L 11.96875 -1.53125 L 11.96875 -65.890625 L 2.390625 -65.890625 L 2.390625 -67.421875 Z M 31.3125 -67.421875 "/></g></g></g><g clip-path="url(#d835b74ad2)"><path fill="#ffffff" d="M 25.910156 168.359375 L 354.609375 168.359375 L 354.609375 193.976562 L 25.910156 193.976562 Z M 25.910156 168.359375 " fill-opacity="1" fill-rule="nonzero"/></g><g fill="#000000" fill-opacity="1"><g transform="translate(34.941334, 185.170537)"><g><path d="M 6.234375 0.09375 C 5.203125 0.09375 4.269531 -0.132812 3.4375 -0.59375 C 2.601562 -1.050781 1.953125 -1.6875 1.484375 -2.5 C 1.015625 -3.3125 0.78125 -4.21875 0.78125 -5.21875 C 0.78125 -6.21875 1.015625 -7.125 1.484375 -7.9375 C 1.953125 -8.75 2.601562 -9.382812 3.4375 -9.84375 C 4.28125 -10.300781 5.21875 -10.53125 6.25 -10.53125 C 7.019531 -10.53125 7.734375 -10.398438 8.390625 -10.140625 C 9.046875 -9.878906 9.601562 -9.5 10.0625 -9 L 9.359375 -8.296875 C 8.546875 -9.128906 7.519531 -9.546875 6.28125 -9.546875 C 5.445312 -9.546875 4.691406 -9.351562 4.015625 -8.96875 C 3.347656 -8.59375 2.820312 -8.078125 2.4375 -7.421875 C 2.050781 -6.765625 1.859375 -6.03125 1.859375 -5.21875 C 1.859375 -4.40625 2.050781 -3.671875 2.4375 -3.015625 C 2.820312 -2.359375 3.347656 -1.835938 4.015625 -1.453125 C 4.691406 -1.078125 5.445312 -0.890625 6.28125 -0.890625 C 7.53125 -0.890625 8.554688 -1.304688 9.359375 -2.140625 L 10.0625 -1.453125 C 9.601562 -0.953125 9.039062 -0.566406 8.375 -0.296875 C 7.71875 -0.0351562 7.003906 0.09375 6.234375 0.09375 Z M 6.234375 0.09375 "/></g></g></g><g fill="#000000" fill-opacity="1"><g transform="translate(50.41778, 185.170537)"><g><path d="M 8.25 -2.78125 L 2.4375 -2.78125 L 1.171875 0 L 0.03125 0 L 4.796875 -10.4375 L 5.890625 -10.4375 L 10.65625 0 L 9.5 0 Z M 7.84375 -3.6875 L 5.34375 -9.28125 L 2.828125 -3.6875 Z M 7.84375 -3.6875 "/></g></g></g><g fill="#000000" fill-opacity="1"><g transform="translate(65.864408, 185.170537)"><g><path d="M 8.828125 0 L 6.4375 -3.359375 C 6.164062 -3.328125 5.890625 -3.3125 5.609375 -3.3125 L 2.796875 -3.3125 L 2.796875 0 L 1.703125 0 L 1.703125 -10.4375 L 5.609375 -10.4375 C 6.941406 -10.4375 7.984375 -10.117188 8.734375 -9.484375 C 9.492188 -8.847656 9.875 -7.972656 9.875 -6.859375 C 9.875 -6.046875 9.664062 -5.359375 9.25 -4.796875 C 8.832031 -4.234375 8.242188 -3.828125 7.484375 -3.578125 L 10.03125 0 Z M 5.578125 -4.25 C 6.609375 -4.25 7.394531 -4.476562 7.9375 -4.9375 C 8.488281 -5.394531 8.765625 -6.035156 8.765625 -6.859375 C 8.765625 -7.703125 8.488281 -8.347656 7.9375 -8.796875 C 7.394531 -9.253906 6.609375 -9.484375 5.578125 -9.484375 L 2.796875 -9.484375 L 2.796875 -4.25 Z M 5.578125 -4.25 "/></g></g></g><g fill="#000000" fill-opacity="1"><g transform="translate(81.400489, 185.170537)"><g><path d="M 8.265625 -5.375 C 8.953125 -5.226562 9.484375 -4.929688 9.859375 -4.484375 C 10.234375 -4.046875 10.421875 -3.476562 10.421875 -2.78125 C 10.421875 -1.894531 10.085938 -1.207031 9.421875 -0.71875 C 8.765625 -0.238281 7.789062 0 6.5 0 L 1.703125 0 L 1.703125 -10.4375 L 6.203125 -10.4375 C 7.359375 -10.4375 8.257812 -10.203125 8.90625 -9.734375 C 9.550781 -9.265625 9.875 -8.601562 9.875 -7.75 C 9.875 -7.175781 9.726562 -6.6875 9.4375 -6.28125 C 9.15625 -5.875 8.765625 -5.570312 8.265625 -5.375 Z M 2.796875 -9.53125 L 2.796875 -5.734375 L 6.125 -5.734375 C 6.96875 -5.734375 7.617188 -5.894531 8.078125 -6.21875 C 8.535156 -6.539062 8.765625 -7.007812 8.765625 -7.625 C 8.765625 -8.25 8.535156 -8.722656 8.078125 -9.046875 C 7.617188 -9.367188 6.96875 -9.53125 6.125 -9.53125 Z M 6.484375 -0.90625 C 7.421875 -0.90625 8.125 -1.0625 8.59375 -1.375 C 9.070312 -1.695312 9.3125 -2.195312 9.3125 -2.875 C 9.3125 -4.175781 8.367188 -4.828125 6.484375 -4.828125 L 2.796875 -4.828125 L 2.796875 -0.90625 Z M 6.484375 -0.90625 "/></g></g></g><g fill="#000000" fill-opacity="1"><g transform="translate(97.398777, 185.170537)"><g><path d="M 6.265625 0.09375 C 5.222656 0.09375 4.28125 -0.132812 3.4375 -0.59375 C 2.601562 -1.0625 1.953125 -1.695312 1.484375 -2.5 C 1.015625 -3.3125 0.78125 -4.21875 0.78125 -5.21875 C 0.78125 -6.21875 1.015625 -7.117188 1.484375 -7.921875 C 1.953125 -8.734375 2.601562 -9.367188 3.4375 -9.828125 C 4.28125 -10.296875 5.222656 -10.53125 6.265625 -10.53125 C 7.296875 -10.53125 8.222656 -10.300781 9.046875 -9.84375 C 9.878906 -9.382812 10.535156 -8.75 11.015625 -7.9375 C 11.492188 -7.125 11.734375 -6.21875 11.734375 -5.21875 C 11.734375 -4.21875 11.492188 -3.3125 11.015625 -2.5 C 10.535156 -1.6875 9.878906 -1.050781 9.046875 -0.59375 C 8.222656 -0.132812 7.296875 0.09375 6.265625 0.09375 Z M 6.265625 -0.890625 C 7.085938 -0.890625 7.832031 -1.078125 8.5 -1.453125 C 9.164062 -1.828125 9.6875 -2.34375 10.0625 -3 C 10.4375 -3.664062 10.625 -4.40625 10.625 -5.21875 C 10.625 -6.03125 10.4375 -6.765625 10.0625 -7.421875 C 9.6875 -8.085938 9.164062 -8.609375 8.5 -8.984375 C 7.832031 -9.359375 7.085938 -9.546875 6.265625 -9.546875 C 5.429688 -9.546875 4.679688 -9.359375 4.015625 -8.984375 C 3.347656 -8.609375 2.820312 -8.085938 2.4375 -7.421875 C 2.050781 -6.765625 1.859375 -6.03125 1.859375 -5.21875 C 1.859375 -4.40625 2.050781 -3.664062 2.4375 -3 C 2.820312 -2.34375 3.347656 -1.828125 4.015625 -1.453125 C 4.679688 -1.078125 5.429688 -0.890625 6.265625 -0.890625 Z M 6.265625 -0.890625 "/></g></g></g><g fill="#000000" fill-opacity="1"><g transform="translate(114.664405, 185.170537)"><g><path d="M 10.421875 -10.4375 L 10.421875 0 L 9.515625 0 L 2.796875 -8.46875 L 2.796875 0 L 1.703125 0 L 1.703125 -10.4375 L 2.609375 -10.4375 L 9.328125 -1.96875 L 9.328125 -10.4375 Z M 10.421875 -10.4375 "/></g></g></g><g fill="#000000" fill-opacity="1"><g transform="translate(131.542378, 185.170537)"><g/></g></g><g fill="#000000" fill-opacity="1"><g transform="translate(140.205003, 185.170537)"><g><path d="M 12.53125 -10.4375 L 12.53125 0 L 11.484375 0 L 11.484375 -8.34375 L 7.375 -1.328125 L 6.859375 -1.328125 L 2.75 -8.296875 L 2.75 0 L 1.703125 0 L 1.703125 -10.4375 L 2.609375 -10.4375 L 7.140625 -2.703125 L 11.625 -10.4375 Z M 12.53125 -10.4375 "/></g></g></g><g fill="#000000" fill-opacity="1"><g transform="translate(159.200176, 185.170537)"><g><path d="M 8.25 -2.78125 L 2.4375 -2.78125 L 1.171875 0 L 0.03125 0 L 4.796875 -10.4375 L 5.890625 -10.4375 L 10.65625 0 L 9.5 0 Z M 7.84375 -3.6875 L 5.34375 -9.28125 L 2.828125 -3.6875 Z M 7.84375 -3.6875 "/></g></g></g><g fill="#000000" fill-opacity="1"><g transform="translate(174.646807, 185.170537)"><g><path d="M 8.828125 0 L 6.4375 -3.359375 C 6.164062 -3.328125 5.890625 -3.3125 5.609375 -3.3125 L 2.796875 -3.3125 L 2.796875 0 L 1.703125 0 L 1.703125 -10.4375 L 5.609375 -10.4375 C 6.941406 -10.4375 7.984375 -10.117188 8.734375 -9.484375 C 9.492188 -8.847656 9.875 -7.972656 9.875 -6.859375 C 9.875 -6.046875 9.664062 -5.359375 9.25 -4.796875 C 8.832031 -4.234375 8.242188 -3.828125 7.484375 -3.578125 L 10.03125 0 Z M 5.578125 -4.25 C 6.609375 -4.25 7.394531 -4.476562 7.9375 -4.9375 C 8.488281 -5.394531 8.765625 -6.035156 8.765625 -6.859375 C 8.765625 -7.703125 8.488281 -8.347656 7.9375 -8.796875 C 7.394531 -9.253906 6.609375 -9.484375 5.578125 -9.484375 L 2.796875 -9.484375 L 2.796875 -4.25 Z M 5.578125 -4.25 "/></g></g></g><g fill="#000000" fill-opacity="1"><g transform="translate(190.182892, 185.170537)"><g><path d="M 4.9375 -4.90625 L 2.796875 -2.75 L 2.796875 0 L 1.703125 0 L 1.703125 -10.4375 L 2.796875 -10.4375 L 2.796875 -4.125 L 8.921875 -10.4375 L 10.203125 -10.4375 L 5.671875 -5.703125 L 10.515625 0 L 9.203125 0 Z M 4.9375 -4.90625 "/></g></g></g><g fill="#000000" fill-opacity="1"><g transform="translate(205.540057, 185.170537)"><g><path d="M 9.078125 -0.953125 L 9.078125 0 L 1.703125 0 L 1.703125 -10.4375 L 8.859375 -10.4375 L 8.859375 -9.484375 L 2.796875 -9.484375 L 2.796875 -5.765625 L 8.203125 -5.765625 L 8.203125 -4.828125 L 2.796875 -4.828125 L 2.796875 -0.953125 Z M 9.078125 -0.953125 "/></g></g></g><g fill="#000000" fill-opacity="1"><g transform="translate(220.271011, 185.170537)"><g><path d="M 3.71875 -9.484375 L 0.0625 -9.484375 L 0.0625 -10.4375 L 8.5 -10.4375 L 8.5 -9.484375 L 4.828125 -9.484375 L 4.828125 0 L 3.71875 0 Z M 3.71875 -9.484375 "/></g></g></g><g fill="#000000" fill-opacity="1"><g transform="translate(233.585525, 185.170537)"><g><path d="M 4.578125 0.09375 C 3.796875 0.09375 3.050781 -0.03125 2.34375 -0.28125 C 1.632812 -0.53125 1.085938 -0.859375 0.703125 -1.265625 L 1.140625 -2.109375 C 1.515625 -1.734375 2.015625 -1.425781 2.640625 -1.1875 C 3.265625 -0.957031 3.910156 -0.84375 4.578125 -0.84375 C 5.515625 -0.84375 6.210938 -1.015625 6.671875 -1.359375 C 7.140625 -1.703125 7.375 -2.148438 7.375 -2.703125 C 7.375 -3.117188 7.25 -3.445312 7 -3.6875 C 6.75 -3.9375 6.4375 -4.128906 6.0625 -4.265625 C 5.695312 -4.398438 5.1875 -4.546875 4.53125 -4.703125 C 3.75 -4.910156 3.125 -5.101562 2.65625 -5.28125 C 2.1875 -5.46875 1.785156 -5.75 1.453125 -6.125 C 1.117188 -6.5 0.953125 -7.007812 0.953125 -7.65625 C 0.953125 -8.1875 1.085938 -8.664062 1.359375 -9.09375 C 1.640625 -9.53125 2.066406 -9.878906 2.640625 -10.140625 C 3.222656 -10.398438 3.941406 -10.53125 4.796875 -10.53125 C 5.390625 -10.53125 5.972656 -10.445312 6.546875 -10.28125 C 7.117188 -10.113281 7.613281 -9.882812 8.03125 -9.59375 L 7.65625 -8.71875 C 7.21875 -9.007812 6.75 -9.222656 6.25 -9.359375 C 5.757812 -9.503906 5.273438 -9.578125 4.796875 -9.578125 C 3.878906 -9.578125 3.191406 -9.398438 2.734375 -9.046875 C 2.273438 -8.703125 2.046875 -8.25 2.046875 -7.6875 C 2.046875 -7.269531 2.171875 -6.9375 2.421875 -6.6875 C 2.671875 -6.4375 2.988281 -6.242188 3.375 -6.109375 C 3.757812 -5.972656 4.273438 -5.828125 4.921875 -5.671875 C 5.679688 -5.472656 6.296875 -5.28125 6.765625 -5.09375 C 7.242188 -4.914062 7.644531 -4.640625 7.96875 -4.265625 C 8.300781 -3.898438 8.46875 -3.394531 8.46875 -2.75 C 8.46875 -2.226562 8.320312 -1.75 8.03125 -1.3125 C 7.75 -0.882812 7.316406 -0.539062 6.734375 -0.28125 C 6.148438 -0.03125 5.429688 0.09375 4.578125 0.09375 Z M 4.578125 0.09375 "/></g></g></g><g fill="#000000" fill-opacity="1"><g transform="translate(247.511349, 185.170537)"><g/></g></g><g fill="#000000" fill-opacity="1"><g transform="translate(256.173974, 185.170537)"><g><path d="M 1.703125 -10.4375 L 2.796875 -10.4375 L 2.796875 -0.953125 L 8.640625 -0.953125 L 8.640625 0 L 1.703125 0 Z M 1.703125 -10.4375 "/></g></g></g><g fill="#000000" fill-opacity="1"><g transform="translate(269.712142, 185.170537)"><g><path d="M 9.078125 -0.953125 L 9.078125 0 L 1.703125 0 L 1.703125 -10.4375 L 8.859375 -10.4375 L 8.859375 -9.484375 L 2.796875 -9.484375 L 2.796875 -5.765625 L 8.203125 -5.765625 L 8.203125 -4.828125 L 2.796875 -4.828125 L 2.796875 -0.953125 Z M 9.078125 -0.953125 "/></g></g></g><g fill="#000000" fill-opacity="1"><g transform="translate(284.443096, 185.170537)"><g><path d="M 1.703125 -10.4375 L 5.953125 -10.4375 C 7.054688 -10.4375 8.03125 -10.210938 8.875 -9.765625 C 9.71875 -9.328125 10.367188 -8.710938 10.828125 -7.921875 C 11.296875 -7.128906 11.53125 -6.226562 11.53125 -5.21875 C 11.53125 -4.207031 11.296875 -3.304688 10.828125 -2.515625 C 10.367188 -1.722656 9.71875 -1.101562 8.875 -0.65625 C 8.03125 -0.21875 7.054688 0 5.953125 0 L 1.703125 0 Z M 5.890625 -0.953125 C 6.804688 -0.953125 7.601562 -1.132812 8.28125 -1.5 C 8.96875 -1.863281 9.5 -2.363281 9.875 -3 C 10.257812 -3.644531 10.453125 -4.382812 10.453125 -5.21875 C 10.453125 -6.050781 10.257812 -6.785156 9.875 -7.421875 C 9.5 -8.066406 8.96875 -8.570312 8.28125 -8.9375 C 7.601562 -9.300781 6.804688 -9.484375 5.890625 -9.484375 L 2.796875 -9.484375 L 2.796875 -0.953125 Z M 5.890625 -0.953125 "/></g></g></g><g fill="#000000" fill-opacity="1"><g transform="translate(301.514904, 185.170537)"><g><path d="M 9.046875 -5.21875 L 10.109375 -5.21875 L 10.109375 -1.234375 C 9.617188 -0.804688 9.039062 -0.476562 8.375 -0.25 C 7.707031 -0.0195312 7.007812 0.09375 6.28125 0.09375 C 5.226562 0.09375 4.285156 -0.132812 3.453125 -0.59375 C 2.617188 -1.050781 1.960938 -1.6875 1.484375 -2.5 C 1.015625 -3.3125 0.78125 -4.21875 0.78125 -5.21875 C 0.78125 -6.21875 1.015625 -7.125 1.484375 -7.9375 C 1.960938 -8.75 2.617188 -9.382812 3.453125 -9.84375 C 4.285156 -10.300781 5.234375 -10.53125 6.296875 -10.53125 C 7.085938 -10.53125 7.816406 -10.398438 8.484375 -10.140625 C 9.148438 -9.890625 9.710938 -9.515625 10.171875 -9.015625 L 9.484375 -8.3125 C 8.660156 -9.132812 7.609375 -9.546875 6.328125 -9.546875 C 5.484375 -9.546875 4.722656 -9.359375 4.046875 -8.984375 C 3.367188 -8.609375 2.832031 -8.085938 2.4375 -7.421875 C 2.050781 -6.765625 1.859375 -6.03125 1.859375 -5.21875 C 1.859375 -4.40625 2.050781 -3.671875 2.4375 -3.015625 C 2.832031 -2.359375 3.363281 -1.835938 4.03125 -1.453125 C 4.707031 -1.078125 5.46875 -0.890625 6.3125 -0.890625 C 7.394531 -0.890625 8.304688 -1.160156 9.046875 -1.703125 Z M 9.046875 -5.21875 "/></g></g></g><g fill="#000000" fill-opacity="1"><g transform="translate(317.796469, 185.170537)"><g><path d="M 9.078125 -0.953125 L 9.078125 0 L 1.703125 0 L 1.703125 -10.4375 L 8.859375 -10.4375 L 8.859375 -9.484375 L 2.796875 -9.484375 L 2.796875 -5.765625 L 8.203125 -5.765625 L 8.203125 -4.828125 L 2.796875 -4.828125 L 2.796875 -0.953125 Z M 9.078125 -0.953125 "/></g></g></g><g fill="#000000" fill-opacity="1"><g transform="translate(332.527409, 185.170537)"><g><path d="M 8.828125 0 L 6.4375 -3.359375 C 6.164062 -3.328125 5.890625 -3.3125 5.609375 -3.3125 L 2.796875 -3.3125 L 2.796875 0 L 1.703125 0 L 1.703125 -10.4375 L 5.609375 -10.4375 C 6.941406 -10.4375 7.984375 -10.117188 8.734375 -9.484375 C 9.492188 -8.847656 9.875 -7.972656 9.875 -6.859375 C 9.875 -6.046875 9.664062 -5.359375 9.25 -4.796875 C 8.832031 -4.234375 8.242188 -3.828125 7.484375 -3.578125 L 10.03125 0 Z M 5.578125 -4.25 C 6.609375 -4.25 7.394531 -4.476562 7.9375 -4.9375 C 8.488281 -5.394531 8.765625 -6.035156 8.765625 -6.859375 C 8.765625 -7.703125 8.488281 -8.347656 7.9375 -8.796875 C 7.394531 -9.253906 6.609375 -9.484375 5.578125 -9.484375 L 2.796875 -9.484375 L 2.796875 -4.25 Z M 5.578125 -4.25 "/></g></g></g></svg>